<svg width="434" height="390" viewBox="0 0 434 390" fill="none" xmlns="http://www.w3.org/2000/svg">
<path d="M12.4424 45.9538L28.2258 209.624C28.889 216.786 34.8575 222.091 42.0197 222.091H297.075C304.237 222.091 310.338 216.521 310.868 209.359L325.06 38.6589C325.723 30.4357 319.224 23.4061 310.868 23.6713L25.8384 30.5683C17.8804 30.9662 11.7793 37.9958 12.4424 45.9538Z" stroke="white" stroke-width="7.95803" stroke-miterlimit="10" stroke-linecap="round" stroke-linejoin="round"/>
<path d="M72.791 83.0918C76.77 121.556 80.4838 157.234 84.5954 197.82" stroke="#F59E0B" stroke-width="7.95803" stroke-miterlimit="10" stroke-linecap="round" stroke-linejoin="round"/>
<path d="M123.06 82.96C125.182 120.097 127.039 156.837 129.293 198.086" stroke="#F59E0B" stroke-width="7.95803" stroke-miterlimit="10" stroke-linecap="round" stroke-linejoin="round"/>
<path d="M173.46 82.8271C173.593 118.638 173.726 156.439 173.991 198.351" stroke="#F59E0B" stroke-width="7.95803" stroke-miterlimit="10" stroke-linecap="round" stroke-linejoin="round"/>
<path d="M223.86 82.6943C222.136 117.046 220.412 156.041 218.82 198.616" stroke="#F59E0B" stroke-width="7.95803" stroke-miterlimit="10" stroke-linecap="round" stroke-linejoin="round"/>
<path d="M274.261 82.5615C270.68 115.587 267.099 155.643 263.518 198.881" stroke="#F59E0B" stroke-width="7.95803" stroke-miterlimit="10" stroke-linecap="round" stroke-linejoin="round"/>
<path d="M7.80059 23.6716L331.56 16.7746C336.334 16.642 340.048 20.7536 339.783 25.3958L337.926 49.4025C337.661 53.5142 334.08 56.83 329.968 56.83H10.3206C6.34162 56.83 2.89314 53.9121 2.3626 49.933L0.107824 32.9559C-0.687978 28.0485 3.02577 23.8042 7.80059 23.6716Z" fill="#F97316"/>
<path d="M79.025 267.718L78.7597 263.739C78.2292 257.903 83.5346 252.73 90.2989 252.332L189.774 246.762C196.008 246.364 201.446 250.21 202.242 255.516C203.17 261.484 198.263 266.922 191.366 267.585L111.653 275.145L92.1558 277.135C85.3914 277.798 79.5556 273.554 79.025 267.718Z" fill="#F59E0B"/>
<path d="M111.653 275.278L92.1556 277.135C85.3913 277.798 79.5554 273.554 79.0249 267.718" stroke="white" stroke-width="7.95803" stroke-miterlimit="10" stroke-linecap="round" stroke-linejoin="round"/>
<path d="M247.603 42.9035L248.664 39.0571C250.255 33.3539 246.276 27.2527 239.91 25.5285L145.342 0.460701C139.374 -1.1309 133.405 1.52177 131.548 6.56185C129.426 12.1325 133.14 18.6315 139.639 20.621L233.146 49.5352C239.38 51.5247 246.011 48.4741 247.603 42.9035Z" fill="#F59E0B"/>
<path d="M247.603 42.9033L248.664 39.057C250.256 33.3537 246.277 27.2526 239.91 25.5283" stroke="white" stroke-width="7.95803" stroke-miterlimit="10" stroke-linecap="round" stroke-linejoin="round"/>
<path d="M320.551 94.1006L306.89 100.732L305.033 113.73L289.382 123.811L285.801 147.685" stroke="white" stroke-width="7.95803" stroke-miterlimit="10" stroke-linecap="round" stroke-linejoin="round"/>
<path d="M72.7914 222.225L61.2523 197.953H52.7637L39.7656 177.527" stroke="white" stroke-width="7.95803" stroke-miterlimit="10" stroke-linecap="round" stroke-linejoin="round"/>
<path d="M427.055 178.19C417.904 168.64 402.651 168.375 393.101 177.527L376.92 193.177L286.464 280.45C286.464 280.45 252.642 271.697 231.023 289.337C209.271 306.977 206.088 336.687 213.25 351.144L249.459 316.129C249.459 316.129 258.611 315.996 270.945 328.729C283.28 341.462 282.75 350.614 282.75 350.614L246.541 385.629C260.6 393.322 290.575 391.2 308.879 370.111C327.315 349.022 319.755 314.935 319.755 314.935L409.548 228.325L426.392 212.144C435.942 202.992 436.207 187.739 427.055 178.19Z" fill="#F59E0B"/>
<path d="M270.946 328.729C258.611 315.996 249.459 316.129 249.459 316.129L235.267 329.923L213.25 351.144" stroke="white" stroke-width="7.95803" stroke-miterlimit="10" stroke-linecap="round" stroke-linejoin="round"/>
<path d="M431.963 277.93C431.433 273.819 430.902 270.635 430.372 266.524C429.974 263.871 427.586 262.147 424.934 262.545C424.138 262.677 423.21 262.81 422.414 262.943C420.424 263.208 418.435 262.279 417.506 260.555C417.241 260.025 416.976 259.494 416.711 258.964C415.782 257.372 415.782 255.515 416.843 253.923C417.639 252.73 418.302 251.669 418.965 250.608C420.292 248.485 419.761 245.833 417.772 244.374C414.986 242.252 412.732 240.66 410.079 238.671C407.957 237.079 404.906 237.742 403.447 239.997C403.049 240.66 402.519 241.323 402.121 241.986C401.06 243.578 399.07 244.506 397.213 243.976C396.815 243.843 396.285 243.711 395.887 243.711C394.03 243.313 392.571 241.721 392.173 239.864C392.041 239.334 392.041 238.803 391.908 238.405C391.51 235.62 388.857 233.896 386.205 234.559C383.022 235.355 380.501 235.885 377.186 236.681C374.798 237.212 373.207 239.466 373.605 241.854C373.737 242.517 373.737 243.047 373.87 243.711C374.135 245.568 373.207 247.424 371.482 248.353C370.952 248.618 370.421 249.016 369.891 249.281C368.299 250.342 366.31 250.342 364.718 249.281C364.188 248.883 363.79 248.618 363.259 248.353C361.27 247.026 358.617 247.424 357.025 249.281C355.036 251.669 353.312 253.658 351.322 255.913C349.465 258.035 349.73 261.351 352.118 262.943C352.118 262.943 352.118 262.943 352.251 262.943C353.975 264.136 354.638 266.391 353.975 268.381C353.842 268.646 353.842 268.911 353.709 269.176C353.179 270.901 351.455 272.094 349.73 272.227C348.935 272.36 348.139 272.36 347.21 272.492C344.69 272.757 342.701 274.88 342.966 277.4C343.099 279.787 343.231 281.777 343.231 284.164C343.364 286.684 345.486 288.674 348.006 288.674C349.067 288.674 349.996 288.674 351.057 288.541C352.781 288.541 354.505 289.337 355.434 290.928C355.566 291.061 355.566 291.194 355.699 291.326C356.76 293.316 356.362 295.703 354.771 297.162C354.638 297.295 354.505 297.295 354.505 297.427C352.25 299.284 352.383 302.733 354.638 304.59C357.025 306.579 359.147 308.303 361.668 310.558C363.392 312.017 366.044 312.017 367.769 310.558C368.697 309.762 369.493 309.099 370.554 308.171C371.88 306.977 373.737 306.712 375.329 307.375C375.859 307.64 376.39 307.773 376.92 307.905C378.777 308.569 380.104 310.16 380.104 312.15C380.104 313.078 380.236 314.007 380.236 314.935C380.369 317.455 382.358 319.312 384.746 319.445C388.725 319.577 391.775 319.71 395.622 319.842C398.407 319.975 400.662 317.588 400.397 314.802C400.397 313.874 400.264 313.078 400.264 312.15C400.131 310.16 401.325 308.303 403.049 307.508C403.447 307.375 403.712 307.242 404.11 307.11C405.835 306.314 407.691 306.712 409.15 307.905C410.344 308.967 411.405 309.895 412.466 310.823C414.323 312.548 417.374 312.415 419.098 310.425C421.618 307.773 423.475 305.518 425.862 302.6C427.454 300.611 427.189 297.693 425.332 296.101C424.271 295.173 423.21 294.244 422.016 293.316C420.557 292.122 419.894 290.132 420.557 288.276C420.69 287.745 420.822 287.347 420.955 286.817C421.485 284.96 423.077 283.633 424.934 283.501C426.128 283.368 427.056 283.236 428.25 283.103C430.504 282.97 432.361 280.583 431.963 277.93Z" fill="#F97316"/>
<path d="M399.336 275.808C400.131 282.705 394.826 288.806 387.664 289.204C380.502 289.602 374.4 284.694 373.87 278.195C373.339 271.696 378.379 265.86 385.276 264.932C392.306 264.003 398.54 268.778 399.336 275.808Z" fill="#FDBA74"/>
<path d="M377.716 285.755C375.594 283.766 374.135 281.113 373.87 278.195C373.339 271.696 378.379 265.86 385.276 264.932" stroke="white" stroke-width="7.95803" stroke-miterlimit="10" stroke-linecap="round" stroke-linejoin="round"/>
<path d="M399.6 140.92C399.202 138.267 398.937 136.278 398.539 133.625C398.274 131.901 396.682 130.84 395.09 131.105C394.56 131.237 394.029 131.237 393.499 131.37C392.305 131.635 390.979 130.972 390.316 129.911C390.183 129.513 389.918 129.248 389.785 128.983C389.255 127.922 389.255 126.728 389.785 125.799C390.316 125.004 390.714 124.34 391.111 123.677C391.907 122.351 391.642 120.627 390.316 119.698C388.459 118.372 387.132 117.311 385.408 116.117C383.949 115.056 382.092 115.454 381.164 116.913C380.899 117.311 380.633 117.709 380.368 118.239C379.705 119.3 378.379 119.831 377.185 119.566C376.92 119.433 376.654 119.433 376.256 119.433C375.063 119.168 374.134 118.107 373.869 116.913C373.869 116.648 373.736 116.25 373.736 115.985C373.471 114.26 371.747 113.067 370.023 113.465C368.033 113.995 366.309 114.393 364.319 114.791C362.86 115.189 361.799 116.515 362.065 118.107C362.065 118.505 362.197 118.902 362.197 119.3C362.33 120.494 361.667 121.688 360.606 122.351C360.208 122.484 359.943 122.749 359.545 123.014C358.484 123.677 357.157 123.677 356.229 123.014C355.964 122.749 355.566 122.616 355.3 122.351C353.974 121.555 352.25 121.688 351.321 122.882C349.995 124.473 348.934 125.667 347.74 127.126C346.547 128.452 346.812 130.574 348.271 131.635C349.332 132.431 349.862 133.89 349.332 135.084C349.332 135.216 349.199 135.349 349.199 135.614C348.801 136.675 347.74 137.471 346.679 137.604C346.149 137.604 345.618 137.736 345.088 137.736C343.496 137.869 342.302 139.328 342.302 140.92C342.435 142.379 342.435 143.705 342.567 145.297C342.7 146.888 344.026 148.215 345.618 148.215C346.281 148.215 346.944 148.215 347.608 148.215C348.801 148.215 349.862 148.745 350.393 149.806C350.393 149.939 350.526 149.939 350.526 150.071C351.189 151.265 350.923 152.857 349.862 153.785L349.73 153.918C348.271 155.112 348.403 157.366 349.73 158.56C351.321 159.886 352.648 160.947 354.239 162.406C355.3 163.335 357.025 163.335 358.086 162.406C358.616 161.876 359.279 161.478 359.81 160.947C360.606 160.152 361.799 160.019 362.86 160.417C363.258 160.549 363.524 160.682 363.922 160.815C365.115 161.213 365.911 162.274 366.044 163.467C366.044 164.131 366.044 164.661 366.176 165.192C366.176 166.783 367.503 167.977 369.094 168.11C371.614 168.242 373.604 168.242 376.124 168.375C377.848 168.375 379.307 166.916 379.174 165.192C379.174 164.661 379.042 164.131 379.042 163.467C378.909 162.141 379.705 160.947 380.899 160.55C381.164 160.417 381.297 160.417 381.562 160.284C382.623 159.754 383.949 160.019 384.745 160.815C385.541 161.478 386.204 162.008 386.867 162.672C388.061 163.733 389.918 163.6 391.111 162.406C392.703 160.682 393.897 159.223 395.488 157.366C396.549 156.173 396.417 154.183 395.09 153.122C394.427 152.459 393.764 151.928 392.968 151.398C392.04 150.602 391.642 149.408 392.04 148.215C392.173 147.949 392.173 147.551 392.305 147.286C392.57 146.092 393.632 145.297 394.825 145.164C395.621 145.031 396.284 145.031 396.947 144.899C398.672 144.103 399.865 142.644 399.6 140.92Z" fill="#F59E0B"/>
<path d="M378.777 139.461C379.308 143.838 375.859 147.817 371.35 148.082C368.564 148.215 366.044 147.154 364.32 145.297C363.259 144.103 362.596 142.644 362.463 141.052C362.065 136.941 365.381 133.227 369.758 132.564C374.267 132.033 378.379 135.084 378.777 139.461Z" fill="#FDBA74"/>
<path d="M364.452 145.296C363.391 144.103 362.728 142.644 362.595 141.052C362.197 136.94 365.513 133.227 369.89 132.563" stroke="white" stroke-width="7.95803" stroke-miterlimit="10" stroke-linecap="round" stroke-linejoin="round"/>
<path d="M160.462 351.675C160.064 349.023 159.799 347.033 159.401 344.381C159.136 342.789 157.544 341.595 155.953 341.86C155.422 341.993 154.892 341.993 154.361 342.126C153.035 342.258 151.841 341.728 151.178 340.667C151.045 340.402 150.78 340.004 150.647 339.738C150.117 338.677 150.117 337.484 150.647 336.555C151.178 335.759 151.576 335.096 151.974 334.433C152.77 333.107 152.504 331.382 151.178 330.454C149.454 329.128 147.995 328.067 146.271 326.873C144.944 325.812 142.955 326.21 142.026 327.669C141.761 328.067 141.496 328.464 141.23 328.995C140.567 330.056 139.241 330.587 138.047 330.321C137.782 330.189 137.517 330.189 137.119 330.056C135.925 329.791 134.997 328.862 134.731 327.536C134.731 327.271 134.599 326.873 134.599 326.608C134.333 324.883 132.609 323.69 130.885 324.088C128.895 324.618 127.171 325.016 125.182 325.414C123.723 325.812 122.662 327.138 122.927 328.73C122.927 329.128 123.06 329.526 123.06 329.923C123.192 331.117 122.529 332.311 121.468 332.974C121.07 333.107 120.805 333.372 120.407 333.637C119.346 334.3 118.02 334.3 117.091 333.637C116.826 333.372 116.428 333.239 116.163 332.974C114.836 332.178 113.112 332.311 112.184 333.505C110.857 335.096 109.796 336.29 108.603 337.749C107.409 339.075 107.541 341.197 109.133 342.258C110.194 343.054 110.725 344.513 110.194 345.707C110.194 345.84 110.062 345.972 110.062 346.237C109.664 347.298 108.603 348.094 107.541 348.227C107.011 348.227 106.48 348.36 105.95 348.36C104.358 348.492 103.165 349.819 103.165 351.543C103.297 353.002 103.297 354.328 103.43 355.92C103.43 357.511 104.889 358.838 106.48 358.838C107.144 358.838 107.807 358.838 108.47 358.838C109.664 358.838 110.725 359.368 111.255 360.429C111.255 360.562 111.388 360.562 111.388 360.694C112.051 361.888 111.786 363.48 110.725 364.408C110.725 364.408 110.592 364.541 110.459 364.541C109 365.735 109.133 367.989 110.459 369.183C112.051 370.509 113.377 371.57 114.969 373.029C116.163 373.958 117.754 373.958 118.815 373.029C119.346 372.499 119.876 372.101 120.54 371.57C121.335 370.775 122.529 370.642 123.59 371.04C123.855 371.173 124.253 371.305 124.651 371.438C125.845 371.836 126.641 372.897 126.773 374.091C126.773 374.754 126.773 375.284 126.773 375.815C126.773 377.406 128.1 378.6 129.691 378.733C132.211 378.865 134.201 378.865 136.588 378.998C138.312 378.998 139.771 377.539 139.639 375.815C139.639 375.284 139.639 374.754 139.506 374.091C139.374 372.897 140.169 371.57 141.363 371.173C141.628 371.04 141.894 371.04 142.026 370.907C143.087 370.377 144.414 370.642 145.209 371.438C146.005 372.101 146.668 372.632 147.332 373.295C148.525 374.356 150.382 374.356 151.576 373.029C153.167 371.305 154.361 369.846 155.953 367.989C157.014 366.796 156.881 364.939 155.555 363.878C154.892 363.215 154.229 362.684 153.433 362.021C152.504 361.225 152.106 360.031 152.504 358.838C152.637 358.572 152.637 358.174 152.77 357.909C153.035 356.715 154.096 355.92 155.29 355.787C156.085 355.654 156.749 355.654 157.412 355.522C159.534 354.859 160.728 353.267 160.462 351.675ZM132.211 358.838C127.702 359.103 123.723 355.92 123.325 351.808C122.927 347.696 126.243 343.983 130.62 343.319C134.997 342.656 139.108 345.707 139.506 350.216C140.169 354.593 136.854 358.572 132.211 358.838Z" fill="#F59E0B"/>
</svg>
